<svg xmlns="http://www.w3.org/2000/svg" viewBox="0 0 901.85 292.96"><defs><style>.a{fill:#fff;}.b{fill:#eaf4f9;}.b,.d,.f,.g,.h{stroke:#3b4856;}.b,.g,.h{stroke-miterlimit:10;}.c,.d,.f{fill:none;stroke-linecap:round;stroke-linejoin:round;}.c{stroke:#fff;stroke-width:4px;}.e,.i{fill:#3b4856;}.f{stroke-width:2px;stroke-dasharray:0 4;}.g{fill:#ffc100;}.g,.h{fill-opacity:0.6;}.h{fill:#c81d6b;}.i{font-size:18px;font-family:YandexSansText-Regular, Yandex Sans Text;}.j{letter-spacing:-0.02em;}.k{letter-spacing:0em;}.l{letter-spacing:0em;}.m{letter-spacing:-0.02em;}.n{letter-spacing:-0.01em;}.o{letter-spacing:0em;}.p{letter-spacing:-0.01em;}.q{letter-spacing:0em;}</style></defs><title>gif_conv_template0</title><polygon class="a" points="901.85 292.95 0 292.95 0 -0.02 901.85 0.01 901.85 292.95"/><rect class="b" x="2.85" y="52.89" width="146.54" height="146.54"/><rect class="b" x="226.3" y="52.89" width="146.54" height="146.54"/><rect class="b" x="449.75" y="52.89" width="146.54" height="146.54"/><rect class="b" x="673.21" y="52.89" width="146.54" height="146.54"/><line class="c" x1="172.91" y1="126.17" x2="202.75" y2="126.17"/><polygon class="a" points="202.62 126.33 202.59 126.3 202.73 126.17 202.59 126.03 202.62 126 202.79 126.17 202.62 126.33"/><line class="d" x1="172.91" y1="126.17" x2="201.71" y2="126.17"/><polygon class="e" points="198.39 130.26 197.71 129.52 201.32 126.17 197.71 122.81 198.39 122.08 202.79 126.17 198.39 130.26"/><line class="c" x1="61.42" y1="77.32" x2="240.96" y2="77.32"/><polygon class="a" points="240.83 77.48 240.8 77.45 240.95 77.32 240.8 77.18 240.83 77.16 241.01 77.32 240.83 77.48"/><line class="f" x1="61.42" y1="77.32" x2="239.92" y2="77.32"/><polygon class="e" points="236.61 81.41 235.93 80.68 239.54 77.32 235.93 73.96 236.61 73.23 241.01 77.32 236.61 81.41"/><line class="c" x1="532.75" y1="91.1" x2="712.29" y2="91.1"/><polygon class="a" points="712.16 91.26 712.13 91.23 712.28 91.1 712.13 90.97 712.16 90.94 712.34 91.1 712.16 91.26"/><line class="f" x1="532.75" y1="91.1" x2="711.25" y2="91.1"/><polygon class="e" points="707.94 95.19 707.25 94.46 710.87 91.1 707.25 87.74 707.94 87.01 712.34 91.1 707.94 95.19"/><line class="c" x1="394.13" y1="126.17" x2="423.97" y2="126.17"/><polygon class="a" points="423.84 126.33 423.81 126.3 423.95 126.17 423.81 126.03 423.84 126 424.01 126.17 423.84 126.33"/><line class="d" x1="394.13" y1="126.17" x2="422.93" y2="126.17"/><polygon class="e" points="419.61 130.26 418.93 129.52 422.54 126.17 418.93 122.81 419.61 122.08 424.01 126.17 419.61 130.26"/><line class="c" x1="619.81" y1="126.17" x2="649.65" y2="126.17"/><polygon class="a" points="649.52 126.33 649.49 126.3 649.64 126.17 649.49 126.03 649.52 126 649.7 126.17 649.52 126.33"/><line class="d" x1="619.81" y1="126.17" x2="648.61" y2="126.17"/><polygon class="e" points="645.3 130.26 644.62 129.52 648.23 126.17 644.62 122.81 645.3 122.08 649.7 126.17 645.3 130.26"/><rect class="g" x="51.7" y="101.74" width="48.85" height="48.85"/><rect class="h" x="2.85" y="52.89" width="48.85" height="48.85"/><rect class="g" x="275.15" y="101.74" width="48.85" height="48.85"/><rect class="h" x="250.73" y="52.89" width="48.85" height="48.85"/><rect class="g" x="498.6" y="101.74" width="48.85" height="48.85"/><rect class="h" x="474.18" y="77.32" width="48.85" height="48.85"/><rect class="g" x="722.05" y="101.74" width="48.85" height="48.85"/><rect class="h" x="722.05" y="77.32" width="48.85" height="48.85"/><path class="e" d="M456,37.35a1.39,1.39,0,0,1-.06-.19s0,0,.24-.2l1.33-1.05c1.85-1.43,2.45-1.91,3.4-2,.1,0,.24,0,.24-.25a.14.14,0,0,0-.16-.15l-.47,0H460l-1.3,0c-.1,0-.26,0-.26.24s.1.16.18.16.34.06.34.25-.42.61-.53.7l-5.4,4.2,1.14-4.54c.13-.47.16-.6,1.13-.6.26,0,.38,0,.38-.26s-.13-.13-.2-.13l-.79,0h-1.63l-.79,0c-.11,0-.26,0-.26.25s.13.14.34.14c.84,0,.84.11.84.26a1.08,1.08,0,0,1-.06.31l-1.85,7.4c-.13.48-.16.62-1.12.62-.26,0-.41,0-.41.24s.13.16.21.16l.79,0h1.61l.82,0c.11,0,.25,0,.25-.26s-.12-.13-.33-.13c-.84,0-.84-.11-.84-.25a6.16,6.16,0,0,1,.13-.66l.54-2.13L455,37.83c.4.89,1.13,2.64,1.69,4a.48.48,0,0,1,.07.26c0,.42-.55.43-.67.43s-.26,0-.26.25.16.14.19.14l1.48,0h.66l.64,0c.08,0,.24,0,.24-.26s-.12-.13-.26-.13a.79.79,0,0,1-.89-.62Z"/><path class="e" d="M692.83,39.16H689c-.23,0-.27,0-.35.07a.28.28,0,0,0,0,.39c.07.07.11.07.32.07h3.88v3.88c0,.21,0,.25.07.32a.3.3,0,0,0,.39,0c.07-.08.07-.12.07-.35V39.71h4a.43.43,0,0,0,.2-.09.26.26,0,0,0,0-.39.19.19,0,0,0-.13-.07s-3.09,0-4.07,0V35.61c0-.1,0-.37,0-.48a.32.32,0,0,0-.07-.17.26.26,0,0,0-.39,0c-.08.07-.08.15-.08.36Z"/><path class="e" d="M705.11,34.11c0-.29,0-.3-.21-.3a2.77,2.77,0,0,1-2.11.87s-.11,0-.12,0a1.48,1.48,0,0,0,0,.34,3.47,3.47,0,0,0,1.68-.41v7.21c0,.48,0,.65-1.2.65h-.41v.35l2,0,2,0V42.5h-.41c-1.18,0-1.2-.15-1.2-.65Z"/><path class="e" d="M679.44,37.35a.73.73,0,0,1-.07-.19s0,0,.24-.2L681,35.91c1.84-1.43,2.44-1.91,3.39-2,.11,0,.24,0,.24-.25a.14.14,0,0,0-.16-.15l-.47,0h-.5l-1.3,0c-.1,0-.25,0-.25.24a.15.15,0,0,0,.17.16c.16,0,.34.06.34.25s-.41.61-.53.7l-5.4,4.2,1.14-4.54c.13-.47.16-.6,1.13-.6.26,0,.38,0,.38-.26s-.13-.13-.2-.13l-.79,0h-1.62l-.8,0c-.11,0-.25,0-.25.25s.12.14.33.14c.84,0,.84.11.84.26a1.08,1.08,0,0,1-.06.31l-1.85,7.4c-.13.48-.16.62-1.12.62-.26,0-.4,0-.4.24s.12.16.2.16l.79,0h1.61l.82,0c.11,0,.26,0,.26-.26s-.13-.13-.34-.13c-.84,0-.84-.11-.84-.25a4.67,4.67,0,0,1,.14-.66l.53-2.13,2.09-1.65c.41.89,1.13,2.64,1.69,4a.48.48,0,0,1,.07.26c0,.42-.55.43-.67.43s-.26,0-.26.25.16.14.19.14l1.48,0h.66l.65,0c.07,0,.23,0,.23-.26s-.12-.13-.26-.13a.79.79,0,0,1-.89-.62Z"/><text class="i" transform="translate(31.92 238.45)">Плос<tspan class="j" x="42.21" y="0">к</tspan><tspan x="51.19" y="0">ость</tspan><tspan x="0" y="22">изоб</tspan><tspan class="k" x="40.63" y="22">р</tspan><tspan x="51.55" y="22">а</tspan><tspan class="j" x="61.07" y="22">ж</tspan><tspan class="l" x="74.39" y="22">ения</tspan></text><rect class="b" x="2.75" y="222.74" width="17.76" height="17.76" rx="8.88"/><text class="i" transform="translate(202.66 238.45)">Изоб<tspan class="k" x="43.5" y="0">р</tspan><tspan x="54.43" y="0">а</tspan><tspan class="j" x="63.95" y="0">ж</tspan><tspan x="77.27" y="0">ение</tspan></text><rect class="h" x="173.39" y="222.84" width="17.76" height="17.76" rx="8.88"/><text class="i" transform="translate(378.09 238.45)">«Окно», для <tspan class="j" x="104.9" y="0">к</tspan><tspan class="m" x="113.88" y="0">от</tspan><tspan x="132.41" y="0">оро</tspan><tspan class="m" x="164.37" y="0">г</tspan><tspan x="171.97" y="0">о </tspan><tspan class="n" x="0" y="22">д</tspan><tspan x="10.57" y="22">ела</tspan><tspan class="o" x="39.83" y="22">е</tspan><tspan class="m" x="49.52" y="22">т</tspan><tspan x="57.83" y="22">ся пе</tspan><tspan class="p" x="99.7" y="22">рд</tspan><tspan x="121.1" y="22">с</tspan><tspan class="p" x="129.98" y="22">к</tspan><tspan class="q" x="139.14" y="22">азание</tspan></text><rect class="g" x="348.82" y="222.84" width="17.76" height="17.76" rx="8.88"/></svg>