<svg xmlns="http://www.w3.org/2000/svg" viewBox="0 0 960.08 465.13"><defs><style>.a{fill:#fff;}.b{font-size:18px;font-family:YandexSansText-Regular, Yandex Sans Text;}.b,.h{fill:#3b4856;}.c{letter-spacing:-0.02em;}.d{letter-spacing:0em;}.e{letter-spacing:0em;}.f{letter-spacing:-0.01em;}.g{fill:#ffc100;fill-opacity:0.6;}.g,.j,.k{stroke:#3b4856;}.g,.k{stroke-miterlimit:10;}.i,.j{fill:none;stroke-linecap:round;stroke-linejoin:round;}.i{stroke:#fff;stroke-width:4px;}.k{fill:#eaf4f9;}</style></defs><title>gif_shift_template</title><rect class="a" width="960.08" height="464.49"/><text class="b" transform="translate(769.83 58.36)">Плос<tspan class="c" x="42.21" y="0">к</tspan><tspan x="51.19" y="0">ость</tspan><tspan x="0" y="22">изоб</tspan><tspan class="d" x="40.63" y="22">р</tspan><tspan x="51.55" y="22">а</tspan><tspan class="c" x="61.07" y="22">ж</tspan><tspan class="e" x="74.39" y="22">ения</tspan></text><text class="b" transform="translate(769.83 113.22)">Изоб<tspan class="d" x="43.5" y="0">р</tspan><tspan x="54.43" y="0">а</tspan><tspan class="c" x="63.95" y="0">ж</tspan><tspan x="77.27" y="0">ение</tspan><tspan class="f" x="0" y="22">щ</tspan><tspan x="14.72" y="22">ен</tspan><tspan class="f" x="34.96" y="22">к</tspan><tspan x="44.12" y="22">а</tspan></text><polygon class="g" points="127.67 187.94 105.47 187.94 83.27 187.94 61.08 187.94 61.08 276.73 83.27 276.73 105.47 276.73 127.67 276.73 149.86 276.73 149.86 187.94 127.67 187.94"/><path class="h" d="M233.3,331.33h4a.52.52,0,0,0,.2-.08.26.26,0,0,0,0-.39.24.24,0,0,0-.13-.08s-3.09,0-4.07,0h-4.4c-.23,0-.27,0-.35.08a.29.29,0,0,0,0,.38c.07.07.11.07.32.07h4.42Z"/><path class="h" d="M247.11,332.36h-.24a3,3,0,0,1-.3,1.21,4.37,4.37,0,0,1-1.25.11h-2.63c.5-.53,1.45-1.5,2.62-2.62a4.45,4.45,0,0,0,1.8-3.08,2.54,2.54,0,0,0-2.72-2.55A2.5,2.5,0,0,0,242,328a.56.56,0,1,0,.56-.51.51.51,0,0,0-.22,0,2,2,0,0,1,1.89-1.74,2,2,0,0,1,2,2.19,4.88,4.88,0,0,1-1.48,3.1L242,334.16v.32h4.82Z"/><path class="h" d="M218.54,329l-.7-.29.08-.35,1.83-.29-.2,1.38c.16-.17.34-.33.52-.5a3.79,3.79,0,0,1,.56-.43,3,3,0,0,1,.62-.32,2,2,0,0,1,.69-.12,1.18,1.18,0,0,1,1.07.48,1.76,1.76,0,0,1,.11,1.38l-.78,3.29c-.06.27-.05.46,0,.55s.32.15.68.15l-.09.42a2,2,0,0,1-.48.09,4,4,0,0,1-.49,0,.92.92,0,0,1-.73-.25.93.93,0,0,1-.08-.86l.83-3.45a1.44,1.44,0,0,0,0-.8c-.08-.2-.28-.31-.6-.31a1.31,1.31,0,0,0-.43.08,2,2,0,0,0-.46.24c-.16.11-.33.25-.52.41s-.4.36-.64.59l-1,4.23h-1.12Z"/><path class="h" d="M386,331.33h4a.62.62,0,0,0,.21-.08.28.28,0,0,0-.14-.47s-3.09,0-4.06,0h-4.41c-.23,0-.27,0-.35.08a.29.29,0,0,0,0,.38c.07.07.11.07.32.07H386Z"/><path class="h" d="M397.72,325.73c0-.29,0-.3-.21-.3a2.77,2.77,0,0,1-2.1.88s-.11,0-.13,0a1.63,1.63,0,0,0,0,.35,3.56,3.56,0,0,0,1.68-.41v7.21c0,.48,0,.64-1.2.64h-.41v.36c.66,0,1.34,0,2,0s1.34,0,2,0v-.36h-.41c-1.17,0-1.2-.15-1.2-.64Z"/><path class="h" d="M370.69,329l-.7-.29.08-.35,1.83-.29-.2,1.38c.16-.17.34-.33.52-.5a3.79,3.79,0,0,1,.56-.43,3,3,0,0,1,.62-.32,2,2,0,0,1,.69-.12,1.18,1.18,0,0,1,1.07.48,1.76,1.76,0,0,1,.11,1.38l-.78,3.29c-.06.27-.05.46.05.55s.32.15.68.15l-.09.42a2,2,0,0,1-.48.09,4.07,4.07,0,0,1-.5,0,.91.91,0,0,1-.72-.25.93.93,0,0,1-.08-.86l.83-3.45a1.44,1.44,0,0,0,0-.8c-.08-.2-.28-.31-.6-.31a1.31,1.31,0,0,0-.43.08,2,2,0,0,0-.46.24c-.16.11-.33.25-.52.41s-.4.36-.64.59l-1,4.23h-1.12Z"/><path class="h" d="M80.53,331.33h4a.59.59,0,0,0,.2-.08.26.26,0,0,0,0-.39.29.29,0,0,0-.13-.08s-3.09,0-4.07,0h-4.4c-.23,0-.27,0-.35.08a.27.27,0,0,0,0,.38c.07.07.11.07.32.07h4.42Z"/><path class="h" d="M92.24,329.82c1.22,0,1.75,1.06,1.75,2.28,0,1.64-.87,2.27-1.67,2.27A2.4,2.4,0,0,1,90.05,333a.51.51,0,0,0,.21,0,.58.58,0,0,0,0-1.15.55.55,0,0,0-.59.61,2.5,2.5,0,0,0,2.68,2.25A2.63,2.63,0,0,0,95,332.11a2.55,2.55,0,0,0-2.39-2.44,2.54,2.54,0,0,0,2-2.39,2.38,2.38,0,0,0-4.65,0,.5.5,0,0,0,.53.56.53.53,0,0,0,0-1.06.55.55,0,0,0-.18,0,2.13,2.13,0,0,1,2-1.06,1.35,1.35,0,0,1,1.38,1.54A2.66,2.66,0,0,1,93.2,329a1.58,1.58,0,0,1-1.33.6l-.43,0c-.1,0-.16,0-.16.13s0,.1.29.1Z"/><path class="h" d="M64.85,329l-.69-.29.08-.35,1.83-.29-.21,1.38.52-.5a3.87,3.87,0,0,1,.57-.43,2.8,2.8,0,0,1,.62-.32,1.92,1.92,0,0,1,.69-.12,1.18,1.18,0,0,1,1.07.48,1.81,1.81,0,0,1,.11,1.38l-.78,3.29c-.07.27,0,.46,0,.55s.32.15.68.15l-.1.42a2,2,0,0,1-.48.09,3.91,3.91,0,0,1-.49,0,.9.9,0,0,1-.72-.25.93.93,0,0,1-.08-.86l.83-3.45a1.34,1.34,0,0,0,0-.8c-.07-.2-.27-.31-.59-.31a1.26,1.26,0,0,0-.43.08,1.85,1.85,0,0,0-.46.24c-.16.11-.33.25-.52.41s-.4.36-.64.59l-1,4.23H63.58Z"/><path class="h" d="M63.38,170.17a1,1,0,0,0,0-.2c0-.13-.14-.13-.16-.13l-.73.07-.67.05c-.32,0-.41,0-.41.28s.13.13.27.13c.67,0,.67.12.67.25a1.12,1.12,0,0,1-.06.32l-1.9,7.6a.8.8,0,0,0-.06.3.33.33,0,0,0,.36.35c.38,0,.45-.3.56-.71l.63-2.48c.95.11,1.52.5,1.52,1.14a1.35,1.35,0,0,1,0,.33,1.71,1.71,0,0,0,0,.43,1.19,1.19,0,0,0,1.18,1.29,1.28,1.28,0,0,0,1-.75,4.81,4.81,0,0,0,.45-1.28.12.12,0,0,0-.13-.12c-.12,0-.14.05-.19.26-.19.69-.47,1.62-1.14,1.62-.27,0-.44-.13-.44-.64a2.81,2.81,0,0,1,.11-.74,1.4,1.4,0,0,0,0-.41c0-.78-.71-1.22-1.93-1.38a6.22,6.22,0,0,0,1.15-1c.75-.85,1.27-1.28,1.88-1.28a.57.57,0,0,1,.48.16.7.7,0,0,0-.68.67.41.41,0,0,0,.44.42.7.7,0,0,0,.68-.73.82.82,0,0,0-.91-.78c-.73,0-1.32.52-2.27,1.58a3.29,3.29,0,0,1-1.11.85Z"/><path class="h" d="M63.38,170.17a1,1,0,0,0,0-.2c0-.13-.14-.13-.16-.13l-.73.07-.67.05c-.32,0-.41,0-.41.28s.13.13.27.13c.67,0,.67.12.67.25a1.12,1.12,0,0,1-.06.32l-1.9,7.6a.8.8,0,0,0-.06.3.33.33,0,0,0,.36.35c.38,0,.45-.3.56-.71l.63-2.48c.95.11,1.52.5,1.52,1.14a1.35,1.35,0,0,1,0,.33,1.71,1.71,0,0,0,0,.43,1.19,1.19,0,0,0,1.18,1.29,1.28,1.28,0,0,0,1-.75,4.81,4.81,0,0,0,.45-1.28.12.12,0,0,0-.13-.12c-.12,0-.14.05-.19.26-.19.69-.47,1.62-1.14,1.62-.27,0-.44-.13-.44-.64a2.81,2.81,0,0,1,.11-.74,1.4,1.4,0,0,0,0-.41c0-.78-.71-1.22-1.93-1.38a6.22,6.22,0,0,0,1.15-1c.75-.85,1.27-1.28,1.88-1.28a.57.57,0,0,1,.48.16.7.7,0,0,0-.68.67.41.41,0,0,0,.44.42.7.7,0,0,0,.68-.73.82.82,0,0,0-.91-.78c-.73,0-1.32.52-2.27,1.58a3.29,3.29,0,0,1-1.11.85Z"/><path class="h" d="M384.68,175.43h-3.87c-.23,0-.27,0-.34.08a.28.28,0,0,0,0,.39c.06.06.1.06.32.06h3.88v3.89c0,.21,0,.25.06.31a.28.28,0,0,0,.39,0c.08-.07.08-.11.08-.34V176h4a.46.46,0,0,0,.21-.08.28.28,0,0,0-.14-.47s-3.09,0-4.06,0v-3.54c0-.11,0-.38,0-.48a.33.33,0,0,0-.08-.18.28.28,0,0,0-.39,0c-.07.08-.07.16-.07.37Z"/><path class="h" d="M399,177h-.25c-.13,1-.24,1.13-.3,1.22a4.3,4.3,0,0,1-1.24.11H394.6c.49-.54,1.45-1.51,2.61-2.63a4.43,4.43,0,0,0,1.81-3.08,2.55,2.55,0,0,0-2.73-2.55,2.5,2.5,0,0,0-2.42,2.56.56.56,0,1,0,1.11,0,.53.53,0,0,0-.55-.54.51.51,0,0,0-.22,0,2,2,0,0,1,1.89-1.74,2,2,0,0,1,2,2.19,4.89,4.89,0,0,1-1.47,3.11l-2.73,3.08v.31h4.82Z"/><path class="h" d="M373.2,170.17a1,1,0,0,0,0-.2c0-.13-.14-.13-.16-.13l-.73.07-.67.05c-.32,0-.41,0-.41.28s.13.13.27.13c.67,0,.67.12.67.25a1.12,1.12,0,0,1-.06.32l-1.9,7.6a1,1,0,0,0-.05.3.33.33,0,0,0,.35.35c.38,0,.46-.3.56-.71l.63-2.48c.95.11,1.52.5,1.52,1.14a1.35,1.35,0,0,1,0,.33,1.71,1.71,0,0,0-.05.43,1.19,1.19,0,0,0,1.18,1.29,1.28,1.28,0,0,0,1-.75,4.81,4.81,0,0,0,.45-1.28.12.12,0,0,0-.13-.12c-.12,0-.14.05-.19.26-.19.69-.46,1.62-1.14,1.62-.27,0-.44-.13-.44-.64a2.81,2.81,0,0,1,.11-.74,1.4,1.4,0,0,0,.05-.41c0-.78-.7-1.22-1.93-1.38a6.22,6.22,0,0,0,1.15-1c.75-.85,1.27-1.28,1.88-1.28a.57.57,0,0,1,.48.16.7.7,0,0,0-.68.67.41.41,0,0,0,.44.42.7.7,0,0,0,.68-.73.82.82,0,0,0-.91-.78c-.73,0-1.32.52-2.27,1.58a3.29,3.29,0,0,1-1.11.85Z"/><path class="h" d="M373.2,170.17a1,1,0,0,0,0-.2c0-.13-.14-.13-.16-.13l-.73.07-.67.05c-.32,0-.41,0-.41.28s.13.13.27.13c.67,0,.67.12.67.25a1.12,1.12,0,0,1-.06.32l-1.9,7.6a1,1,0,0,0-.05.3.33.33,0,0,0,.35.35c.38,0,.46-.3.56-.71l.63-2.48c.95.11,1.52.5,1.52,1.14a1.35,1.35,0,0,1,0,.33,1.71,1.71,0,0,0-.05.43,1.19,1.19,0,0,0,1.18,1.29,1.28,1.28,0,0,0,1-.75,4.81,4.81,0,0,0,.45-1.28.12.12,0,0,0-.13-.12c-.12,0-.14.05-.19.26-.19.69-.46,1.62-1.14,1.62-.27,0-.44-.13-.44-.64a2.81,2.81,0,0,1,.11-.74,1.4,1.4,0,0,0,.05-.41c0-.78-.7-1.22-1.93-1.38a6.22,6.22,0,0,0,1.15-1c.75-.85,1.27-1.28,1.88-1.28a.57.57,0,0,1,.48.16.7.7,0,0,0-.68.67.41.41,0,0,0,.44.42.7.7,0,0,0,.68-.73.82.82,0,0,0-.91-.78c-.73,0-1.32.52-2.27,1.58a3.29,3.29,0,0,1-1.11.85Z"/><path class="h" d="M232.77,175.43h-3.86c-.23,0-.27,0-.35.08a.3.3,0,0,0,0,.39c.07.06.11.06.32.06h3.88v3.89c0,.21,0,.25.07.31a.28.28,0,0,0,.39,0c.07-.07.07-.11.07-.34V176h4s.15,0,.2-.08a.26.26,0,0,0,0-.39.24.24,0,0,0-.13-.08s-3.09,0-4.07,0v-3.54c0-.11,0-.38,0-.48a.38.38,0,0,0-.07-.18.28.28,0,0,0-.39,0c-.08.08-.08.16-.08.37Z"/><path class="h" d="M245.05,170.38c0-.28,0-.3-.21-.3a2.74,2.74,0,0,1-2.1.88c-.05,0-.11,0-.13,0a1.4,1.4,0,0,0,0,.34,3.47,3.47,0,0,0,1.68-.41v7.21c0,.48,0,.64-1.2.64h-.41v.36l2,0,2,0v-.36h-.41c-1.17,0-1.2-.15-1.2-.64Z"/><path class="h" d="M220.2,170.17a1,1,0,0,0,0-.2c0-.13-.14-.13-.16-.13l-.73.07-.67.05c-.32,0-.41,0-.41.28s.13.13.27.13c.67,0,.67.12.67.25a1.12,1.12,0,0,1-.06.32l-1.9,7.6a1,1,0,0,0-.05.3.33.33,0,0,0,.35.35c.38,0,.46-.3.56-.71l.63-2.48c.95.11,1.52.5,1.52,1.14a1.35,1.35,0,0,1,0,.33,1.71,1.71,0,0,0-.05.43,1.19,1.19,0,0,0,1.18,1.29,1.28,1.28,0,0,0,1-.75,4.81,4.81,0,0,0,.45-1.28.12.12,0,0,0-.13-.12c-.12,0-.14.05-.19.26-.19.69-.46,1.62-1.14,1.62-.27,0-.44-.13-.44-.64a2.81,2.81,0,0,1,.11-.74,1.4,1.4,0,0,0,0-.41c0-.78-.7-1.22-1.93-1.38a6.22,6.22,0,0,0,1.15-1c.75-.85,1.27-1.28,1.88-1.28a.57.57,0,0,1,.48.16.7.7,0,0,0-.68.67.41.41,0,0,0,.44.42.7.7,0,0,0,.68-.73.82.82,0,0,0-.91-.78c-.73,0-1.32.52-2.27,1.58a3.29,3.29,0,0,1-1.11.85Z"/><path class="h" d="M220.2,170.17a1,1,0,0,0,0-.2c0-.13-.14-.13-.16-.13l-.73.07-.67.05c-.32,0-.41,0-.41.28s.13.13.27.13c.67,0,.67.12.67.25a1.12,1.12,0,0,1-.06.32l-1.9,7.6a1,1,0,0,0-.05.3.33.33,0,0,0,.35.35c.38,0,.46-.3.56-.71l.63-2.48c.95.11,1.52.5,1.52,1.14a1.35,1.35,0,0,1,0,.33,1.71,1.71,0,0,0-.05.43,1.19,1.19,0,0,0,1.18,1.29,1.28,1.28,0,0,0,1-.75,4.81,4.81,0,0,0,.45-1.28.12.12,0,0,0-.13-.12c-.12,0-.14.05-.19.26-.19.69-.46,1.62-1.14,1.62-.27,0-.44-.13-.44-.64a2.81,2.81,0,0,1,.11-.74,1.4,1.4,0,0,0,0-.41c0-.78-.7-1.22-1.93-1.38a6.22,6.22,0,0,0,1.15-1c.75-.85,1.27-1.28,1.88-1.28a.57.57,0,0,1,.48.16.7.7,0,0,0-.68.67.41.41,0,0,0,.44.42.7.7,0,0,0,.68-.73.82.82,0,0,0-.91-.78c-.73,0-1.32.52-2.27,1.58a3.29,3.29,0,0,1-1.11.85Z"/><path class="h" d="M537.94,175.43h-3.86c-.23,0-.27,0-.35.08a.3.3,0,0,0,0,.39c.07.06.11.06.32.06h3.88v3.89c0,.21,0,.25.07.31a.28.28,0,0,0,.39,0c.08-.07.08-.11.08-.34V176h4a.46.46,0,0,0,.21-.08.28.28,0,0,0-.14-.47s-3.09,0-4.06,0v-3.54c0-.11,0-.38,0-.48a.33.33,0,0,0-.08-.18.28.28,0,0,0-.39,0c-.08.08-.08.16-.08.37Z"/><path class="h" d="M550.19,174.48c1.22,0,1.75,1.05,1.75,2.27,0,1.64-.88,2.27-1.67,2.27a2.39,2.39,0,0,1-2.27-1.41.46.46,0,0,0,.2,0,.58.58,0,1,0-.59-.54,2.51,2.51,0,0,0,2.69,2.25,2.63,2.63,0,0,0,2.68-2.59,2.55,2.55,0,0,0-2.4-2.43,2.54,2.54,0,0,0,2-2.4,2.38,2.38,0,0,0-4.65,0,.52.52,0,0,0,.53.57.54.54,0,1,0,0-1.07.34.34,0,0,0-.17,0,2.09,2.09,0,0,1,1.95-1.07,1.35,1.35,0,0,1,1.39,1.54,2.72,2.72,0,0,1-.52,1.67,1.6,1.6,0,0,1-1.33.61l-.44,0c-.1,0-.15,0-.15.13s0,.11.29.11Z"/><path class="h" d="M525.2,170.17a.59.59,0,0,0,0-.2c0-.13-.13-.13-.16-.13l-.73.07-.66.05c-.32,0-.41,0-.41.28s.13.13.26.13c.68,0,.68.12.68.25a1,1,0,0,1-.07.32l-1.9,7.6a1,1,0,0,0,0,.3.33.33,0,0,0,.36.35c.37,0,.45-.3.56-.71l.62-2.48c1,.11,1.53.5,1.53,1.14a1.35,1.35,0,0,1,0,.33,1.71,1.71,0,0,0-.05.43,1.19,1.19,0,0,0,1.18,1.29,1.25,1.25,0,0,0,1-.75,4.81,4.81,0,0,0,.45-1.28.12.12,0,0,0-.13-.12c-.12,0-.13.05-.18.26-.19.69-.47,1.62-1.15,1.62-.26,0-.43-.13-.43-.64a3.31,3.31,0,0,1,.1-.74,1.18,1.18,0,0,0,.06-.41c0-.78-.71-1.22-1.93-1.38a5.79,5.79,0,0,0,1.14-1c.76-.85,1.28-1.28,1.89-1.28a.61.61,0,0,1,.48.16.69.69,0,0,0-.68.67.41.41,0,0,0,.44.42.69.69,0,0,0,.67-.73.81.81,0,0,0-.9-.78c-.73,0-1.33.52-2.27,1.58a3.25,3.25,0,0,1-1.12.85Z"/><path class="h" d="M525.2,170.17a.59.59,0,0,0,0-.2c0-.13-.13-.13-.16-.13l-.73.07-.66.05c-.32,0-.41,0-.41.28s.13.13.26.13c.68,0,.68.12.68.25a1,1,0,0,1-.07.32l-1.9,7.6a1,1,0,0,0,0,.3.33.33,0,0,0,.36.35c.37,0,.45-.3.56-.71l.62-2.48c1,.11,1.53.5,1.53,1.14a1.35,1.35,0,0,1,0,.33,1.71,1.71,0,0,0-.05.43,1.19,1.19,0,0,0,1.18,1.29,1.25,1.25,0,0,0,1-.75,4.81,4.81,0,0,0,.45-1.28.12.12,0,0,0-.13-.12c-.12,0-.13.05-.18.26-.19.69-.47,1.62-1.15,1.62-.26,0-.43-.13-.43-.64a3.31,3.31,0,0,1,.1-.74,1.18,1.18,0,0,0,.06-.41c0-.78-.71-1.22-1.93-1.38a5.79,5.79,0,0,0,1.14-1c.76-.85,1.28-1.28,1.89-1.28a.61.61,0,0,1,.48.16.69.69,0,0,0-.68.67.41.41,0,0,0,.44.42.69.69,0,0,0,.67-.73.81.81,0,0,0-.9-.78c-.73,0-1.33.52-2.27,1.58a3.25,3.25,0,0,1-1.12.85Z"/><line class="i" x1="166.71" y1="77.9" x2="196.56" y2="77.9"/><polygon class="a" points="196.42 78.06 196.4 78.03 196.54 77.9 196.4 77.76 196.42 77.73 196.6 77.9 196.42 78.06"/><line class="j" x1="166.71" y1="77.9" x2="195.51" y2="77.9"/><polygon class="h" points="192.2 81.99 191.52 81.25 195.13 77.9 191.52 74.54 192.2 73.81 196.6 77.9 192.2 81.99"/><line class="i" x1="319.08" y1="77.9" x2="348.93" y2="77.9"/><polygon class="a" points="348.79 78.06 348.77 78.03 348.91 77.9 348.77 77.76 348.79 77.73 348.97 77.9 348.79 78.06"/><line class="j" x1="319.08" y1="77.9" x2="347.89" y2="77.9"/><polygon class="h" points="344.57 81.99 343.89 81.25 347.5 77.9 343.89 74.54 344.57 73.81 348.97 77.9 344.57 81.99"/><line class="i" x1="471.45" y1="77.9" x2="501.3" y2="77.9"/><polygon class="a" points="501.16 78.06 501.14 78.03 501.28 77.9 501.14 77.76 501.16 77.73 501.34 77.9 501.16 78.06"/><line class="j" x1="471.45" y1="77.9" x2="500.26" y2="77.9"/><polygon class="h" points="496.94 81.99 496.26 81.25 499.87 77.9 496.26 74.54 496.94 73.81 501.34 77.9 496.94 81.99"/><path class="i" d="M623.82,77.9h.57a38.61,38.61,0,1,1,0,77.22H43.67a38.6,38.6,0,0,0-38.61,38.6V194a38.61,38.61,0,0,0,38.61,38.61h.52"/><polygon class="a" points="44.05 232.73 44.02 232.7 44.17 232.57 44.02 232.43 44.05 232.4 44.23 232.57 44.05 232.73"/><path class="j" d="M623.82,77.9h.57a38.61,38.61,0,1,1,0,77.22H43.67a38.6,38.6,0,0,0-38.61,38.6V194a38.6,38.6,0,0,0,38.08,38.6"/><polygon class="h" points="39.66 236.47 39.01 235.71 42.76 232.51 39.3 229 40.01 228.29 44.23 232.57 39.66 236.47"/><path class="i" d="M623.82,232.22h.57a38.61,38.61,0,1,1,0,77.21H43.67A38.61,38.61,0,0,0,5.06,348v.24a38.61,38.61,0,0,0,38.61,38.61h.52"/><polygon class="a" points="44.05 387.05 44.02 387.02 44.17 386.89 44.02 386.75 44.05 386.72 44.23 386.89 44.05 387.05"/><path class="j" d="M623.82,232.22h.57a38.61,38.61,0,1,1,0,77.21H43.67A38.61,38.61,0,0,0,5.06,348v.24a38.6,38.6,0,0,0,38.08,38.6"/><polygon class="h" points="39.66 390.79 39.01 390.02 42.76 386.82 39.3 383.32 40.01 382.61 44.23 386.89 39.66 390.79"/><line class="i" x1="166.71" y1="232.33" x2="196.56" y2="232.33"/><polygon class="a" points="196.42 232.5 196.4 232.47 196.54 232.33 196.4 232.2 196.42 232.17 196.6 232.33 196.42 232.5"/><line class="j" x1="166.71" y1="232.33" x2="195.51" y2="232.33"/><polygon class="h" points="192.2 236.42 191.52 235.69 195.13 232.34 191.52 228.98 192.2 228.25 196.6 232.34 192.2 236.42"/><line class="i" x1="319.08" y1="232.33" x2="348.93" y2="232.33"/><polygon class="a" points="348.79 232.5 348.77 232.47 348.91 232.33 348.77 232.2 348.79 232.17 348.97 232.33 348.79 232.5"/><line class="j" x1="319.08" y1="232.33" x2="347.89" y2="232.33"/><polygon class="h" points="344.57 236.42 343.89 235.69 347.5 232.34 343.89 228.98 344.57 228.25 348.97 232.34 344.57 236.42"/><line class="i" x1="471.45" y1="232.33" x2="501.3" y2="232.33"/><polygon class="a" points="501.16 232.5 501.14 232.47 501.28 232.33 501.14 232.2 501.16 232.17 501.34 232.33 501.16 232.5"/><line class="j" x1="471.45" y1="232.33" x2="500.26" y2="232.33"/><polygon class="h" points="496.94 236.42 496.26 235.69 499.87 232.34 496.26 228.98 496.94 228.25 501.34 232.34 496.94 236.42"/><line class="i" x1="166.71" y1="386.77" x2="196.56" y2="386.77"/><polygon class="a" points="196.42 386.93 196.4 386.9 196.54 386.77 196.4 386.63 196.42 386.61 196.6 386.77 196.42 386.93"/><line class="j" x1="166.71" y1="386.77" x2="195.51" y2="386.77"/><polygon class="h" points="192.2 390.86 191.52 390.13 195.13 386.77 191.52 383.41 192.2 382.68 196.6 386.77 192.2 390.86"/><line class="i" x1="319.08" y1="386.77" x2="348.93" y2="386.77"/><polygon class="a" points="348.79 386.93 348.77 386.9 348.91 386.77 348.77 386.63 348.79 386.61 348.97 386.77 348.79 386.93"/><line class="j" x1="319.08" y1="386.77" x2="347.89" y2="386.77"/><polygon class="h" points="344.57 390.86 343.89 390.13 347.5 386.77 343.89 383.41 344.57 382.68 348.97 386.77 344.57 390.86"/><line class="i" x1="471.45" y1="386.77" x2="501.3" y2="386.77"/><polygon class="a" points="501.16 386.93 501.14 386.9 501.28 386.77 501.14 386.63 501.16 386.61 501.34 386.77 501.16 386.93"/><line class="j" x1="471.45" y1="386.77" x2="500.26" y2="386.77"/><polygon class="h" points="496.94 390.86 496.26 390.13 499.87 386.77 496.26 383.41 496.94 382.68 501.34 386.77 496.94 390.86"/><rect class="k" x="61.08" y="33.51" width="88.79" height="88.79"/><rect class="k" x="213.45" y="33.51" width="88.79" height="88.79"/><rect class="k" x="365.82" y="33.51" width="88.79" height="88.79"/><rect class="k" x="518.19" y="33.51" width="88.79" height="88.79"/><rect class="k" x="213.45" y="187.94" width="88.79" height="88.79"/><rect class="k" x="365.82" y="187.94" width="88.79" height="88.79"/><rect class="k" x="518.19" y="187.94" width="88.79" height="88.79"/><rect class="k" x="61.08" y="342.38" width="88.79" height="88.79"/><rect class="k" x="213.45" y="342.38" width="88.79" height="88.79"/><rect class="k" x="365.82" y="342.38" width="88.79" height="88.79"/><rect class="k" x="518.19" y="342.38" width="88.79" height="88.79"/><rect class="g" x="61.08" y="33.51" width="22.2" height="22.2"/><polygon class="g" points="235.65 33.51 213.45 33.51 213.45 55.7 235.65 55.7 257.84 55.7 257.84 33.51 235.65 33.51"/><polygon class="g" points="410.21 33.51 388.02 33.51 365.82 33.51 365.82 55.7 388.02 55.7 410.21 55.7 432.41 55.7 432.41 33.51 410.21 33.51"/><polygon class="g" points="584.78 33.51 562.58 33.51 540.39 33.51 518.19 33.51 518.19 55.7 540.39 55.7 562.58 55.7 584.78 55.7 606.98 55.7 606.98 33.51 584.78 33.51"/><polygon class="g" points="280.04 187.94 257.84 187.94 235.65 187.94 235.65 276.73 257.84 276.73 280.04 276.73 302.23 276.73 302.23 187.94 280.04 187.94"/><polygon class="g" points="432.41 187.94 410.21 187.94 410.21 276.73 432.41 276.73 454.6 276.73 454.6 187.94 432.41 187.94"/><rect class="g" x="584.78" y="187.94" width="22.2" height="88.79"/><rect class="g" x="61.08" y="408.97" width="88.79" height="22.2"/><polygon class="g" points="280.04 408.97 257.84 408.97 235.65 408.97 235.65 431.16 257.84 431.16 280.04 431.16 302.23 431.16 302.23 408.97 280.04 408.97"/><polygon class="g" points="432.41 408.97 410.21 408.97 410.21 431.16 432.41 431.16 454.6 431.16 454.6 408.97 432.41 408.97"/><rect class="k" x="734" y="44.53" width="17.76" height="17.76" rx="8.88"/><rect class="g" x="733.9" y="100.85" width="17.76" height="17.76" rx="8.88"/><rect class="g" x="584.78" y="408.97" width="22.2" height="22.2"/><path class="h" d="M519.46,329l-.69-.29.08-.35,1.82-.29-.2,1.38.52-.5a3.87,3.87,0,0,1,.57-.43,3,3,0,0,1,.61-.32,2,2,0,0,1,.7-.12,1.19,1.19,0,0,1,1.07.48,1.81,1.81,0,0,1,.11,1.38l-.78,3.29c-.07.27,0,.46,0,.55a1.05,1.05,0,0,0,.69.15l-.1.42a2,2,0,0,1-.48.09,3.91,3.91,0,0,1-.49,0,.92.92,0,0,1-.73-.25,1,1,0,0,1-.07-.86l.82-3.45a1.36,1.36,0,0,0,0-.8c-.08-.2-.27-.31-.59-.31a1.36,1.36,0,0,0-.44.08,2,2,0,0,0-.45.24,5.43,5.43,0,0,0-.52.41c-.19.16-.41.36-.65.59l-1,4.23h-1.12Z"/></svg>