<svg xmlns="http://www.w3.org/2000/svg" viewBox="0 0 984.73 312.3"><defs><style>.a{fill:#fff;}.b,.f{font-size:18px;font-family:YandexSansText-Regular, Yandex Sans Text;}.b{fill:#d8006c;}.c{letter-spacing:-0.02em;}.d{letter-spacing:0em;}.e{opacity:0.5;}.f,.n,.q{fill:#3b4856;}.g{letter-spacing:-0.02em;}.h{letter-spacing:-0.02em;}.i{letter-spacing:-0.01em;}.j{letter-spacing:0em;}.k,.p{opacity:0.4;}.ab,.l,.p{fill:none;}.l,.o{stroke:#3b4856;}.ab,.l,.o,.p{stroke-linecap:round;stroke-linejoin:round;}.m{opacity:0.4;}.o{fill:#eaf4f9;}.p{stroke:#d8006c;}.q{font-size:22px;font-family:YSText-Medium, YS Text;font-weight:500;}.r{letter-spacing:-0.02em;}.s{letter-spacing:0em;}.t{letter-spacing:-0.01em;}.u{letter-spacing:-0.01em;}.v{letter-spacing:0em;}.w{letter-spacing:-0.01em;}.x{letter-spacing:0.01em;}.y{fill:#c81d6b;}.z{fill:#97c804;}.aa{fill:#e06a27;}.ab{stroke:#fff;stroke-width:4px;}</style></defs><title>ecurrent_many_to_many_08a3506cd8</title><rect class="a" x="0.06" width="984.6" height="312.3"/><text class="b" transform="translate(176.98 108.08) rotate(-0.19)">Скрытые<tspan x="-5.73" y="18">сос</tspan><tspan class="c" x="22.49" y="18">т</tspan><tspan class="d" x="30.81" y="18">о</tspan><tspan x="41.19" y="18">яния</tspan></text><g class="e"><text class="f" transform="translate(830.56 163.78) rotate(-0.19)"><tspan class="g">О</tspan><tspan x="13.68" y="0">дина</tspan><tspan class="h" x="55.35" y="0">к</tspan><tspan x="64.33" y="0">овые </tspan><tspan class="i" x="-0.07" y="22">б</tspan><tspan x="10.5" y="22">локи </tspan><tspan x="-0.13" y="44">с общими </tspan><tspan x="-0.2" y="66">па</tspan><tspan class="j" x="19.58" y="66">р</tspan><tspan x="30.51" y="66">ам</tspan><tspan class="j" x="53.28" y="66">е</tspan><tspan x="62.96" y="66">т</tspan><tspan class="j" x="71.55" y="66">р</tspan><tspan x="82.47" y="66">ами</tspan></text></g><g class="k"><path class="l" d="M793,149.18h14.38a5,5,0,0,1,5,5V184a4.81,4.81,0,0,0,4.79,4.92h0a5,5,0,0,0-4.79,5.08v32.8a5,5,0,0,1-5,5H793"/></g><g class="m"><path class="n" d="M784.16,188.49a1.13,1.13,0,1,0-1.14,1.12A1.14,1.14,0,0,0,784.16,188.49Z"/><path class="n" d="M790.51,188.49a1.13,1.13,0,1,0-1.14,1.12A1.14,1.14,0,0,0,790.51,188.49Z"/><path class="n" d="M796.86,188.49a1.13,1.13,0,1,0-1.14,1.12A1.14,1.14,0,0,0,796.86,188.49Z"/></g><circle class="o" cx="163.45" cy="188.48" r="30.88"/><rect class="o" x="258.66" y="155.45" width="68.32" height="66.06"/><line class="p" x1="277.02" y1="173.64" x2="236.57" y2="133.19"/><line class="p" x1="168.18" y1="173.64" x2="208.64" y2="133.19"/><rect class="o" x="518.9" y="155.45" width="68.32" height="66.06"/><rect class="o" x="388.8" y="155.45" width="68.32" height="66.06"/><text class="q" transform="translate(13.73 48.94)"><tspan class="r">Р</tspan><tspan x="13.22" y="0">е</tspan><tspan class="s" x="25.43" y="0">к</tspan><tspan x="37.31" y="0">уррентная с</tspan><tspan class="t" x="164.25" y="0">е</tspan><tspan x="176.31" y="0">ть, р</tspan><tspan class="u" x="222.13" y="0">е</tspan><tspan x="234.19" y="0">жим man</tspan><tspan class="v" x="329.78" y="0">y</tspan><tspan x="341.63" y="0">-</tspan><tspan class="w" x="349.47" y="0">t</tspan><tspan class="x" x="357.87" y="0">o</tspan><tspan x="370.87" y="0">-many</tspan></text><path class="y" d="M160.9,179a1.67,1.67,0,0,0,.07-.35c0-.23-.24-.23-.28-.23s-1.17.09-1.29.12c-.39,0-.74.07-1.16.09-.59.05-.75.07-.75.49,0,.23.18.23.51.23,1.15,0,1.17.21,1.17.45a1.61,1.61,0,0,1-.07.39l-3.39,13.52a1.68,1.68,0,0,0-.09.54.58.58,0,0,0,.63.61,1,1,0,0,0,.82-.56l1.05-4.23c.12-.51.26-1,.37-1.52a4,4,0,0,1,.7-1.68,4.08,4.08,0,0,1,3.29-2.08c.94,0,1.27.7,1.27,1.64a21.25,21.25,0,0,1-1.43,5.25A3.45,3.45,0,0,0,162,193a1.81,1.81,0,0,0,1.85,1.9c2.17,0,3-3.44,3-3.58a.23.23,0,0,0-.24-.21c-.21,0-.23.07-.35.47-.53,1.87-1.4,2.85-2.33,2.85-.23,0-.61,0-.61-.77a5,5,0,0,1,.38-1.61,21.17,21.17,0,0,0,1.47-5.23,2.31,2.31,0,0,0-2.6-2.45,4.33,4.33,0,0,0-3.45,1.84Z"/><path class="y" d="M174.65,193a8.74,8.74,0,0,0-.67-3.89,2.88,2.88,0,0,0-5.31.11,8.52,8.52,0,0,0-.62,3.78,8.09,8.09,0,0,0,.7,3.9,2.87,2.87,0,0,0,2.59,1.63,2.91,2.91,0,0,0,2.69-1.79A9,9,0,0,0,174.65,193Zm-3.31,5.2c-.52,0-1.57-.29-1.88-2.06a19.75,19.75,0,0,1-.18-3.34,14.09,14.09,0,0,1,.26-3.48,1.84,1.84,0,0,1,3.67.18,16.51,16.51,0,0,1,.21,3.3,19.81,19.81,0,0,1-.18,3.31C172.93,197.87,171.91,198.18,171.34,198.18Z"/><path class="z" d="M295.84,265.77a1.17,1.17,0,0,0-1,1.14.72.72,0,0,0,.77.75,1.22,1.22,0,0,0,1.19-1.24c0-1-1.12-1.42-2.1-1.42a3,3,0,0,0-2.43,1.84,2.4,2.4,0,0,0-2.4-1.84c-2.38,0-3.64,3.06-3.64,3.57a.23.23,0,0,0,.25.21c.19,0,.24-.14.28-.23.8-2.59,2.36-3.08,3-3.08,1.05,0,1.26,1,1.26,1.54a9.77,9.77,0,0,1-.42,2.17l-.79,3.2c-.35,1.4-1,2.68-2.27,2.68a2.37,2.37,0,0,1-1.19-.3,1.2,1.2,0,0,0,1-1.14.74.74,0,0,0-.8-.75,1.21,1.21,0,0,0-1.16,1.24c0,1,1.09,1.42,2.1,1.42a2.89,2.89,0,0,0,2.4-1.84,2.45,2.45,0,0,0,2.41,1.84c2.38,0,3.64-3.06,3.64-3.57a.21.21,0,0,0-.23-.21c-.21,0-.24.11-.31.3-.63,2.06-2,3-3,3-.82,0-1.26-.6-1.26-1.56a10.62,10.62,0,0,1,.46-2.43l.82-3.17c.35-1.41,1.15-2.43,2.22-2.43A2.52,2.52,0,0,1,295.84,265.77Z"/><path class="z" d="M301,268.41c0-.37,0-.39-.32-.39a3.59,3.59,0,0,1-2.87,1v.47a4.67,4.67,0,0,0,2.07-.42v8.44c0,.58-.05.78-1.47.78h-.51v.47c.44,0,2,0,2.55,0s2.09,0,2.53,0v-.47h-.5c-1.43,0-1.48-.2-1.48-.78Z"/><path class="y" d="M291.33,179a1.21,1.21,0,0,0,.07-.35c0-.23-.23-.23-.28-.23s-1.16.09-1.28.12c-.4,0-.75.07-1.17.09-.58.05-.74.07-.74.49,0,.23.18.23.51.23,1.14,0,1.17.21,1.17.45a1.61,1.61,0,0,1-.07.39l-3.39,13.52a1.68,1.68,0,0,0-.09.54.57.57,0,0,0,.63.61,1,1,0,0,0,.81-.56l1.06-4.23c.11-.51.25-1,.37-1.52a4,4,0,0,1,.7-1.68,4,4,0,0,1,3.29-2.08c.94,0,1.26.7,1.26,1.64a21.22,21.22,0,0,1-1.42,5.25,3.45,3.45,0,0,0-.33,1.28,1.81,1.81,0,0,0,1.85,1.9c2.17,0,3-3.44,3-3.58a.22.22,0,0,0-.23-.21c-.21,0-.23.07-.35.47-.54,1.87-1.4,2.85-2.33,2.85-.24,0-.61,0-.61-.77a5.31,5.31,0,0,1,.37-1.61,21.17,21.17,0,0,0,1.47-5.23,2.31,2.31,0,0,0-2.59-2.45,4.31,4.31,0,0,0-3.45,1.84Z"/><path class="y" d="M302.88,187.77c0-.37,0-.39-.33-.39a3.57,3.57,0,0,1-2.86,1v.47a4.67,4.67,0,0,0,2.07-.42v8.45c0,.58-.05.77-1.48.77h-.5v.47c.44,0,2,0,2.55,0s2.09,0,2.53,0v-.47h-.51c-1.42,0-1.47-.19-1.47-.77Z"/><path class="z" d="M426.19,265.77a1.17,1.17,0,0,0-1,1.14.72.72,0,0,0,.77.75,1.22,1.22,0,0,0,1.19-1.24c0-1-1.12-1.42-2.1-1.42a3,3,0,0,0-2.43,1.84,2.41,2.41,0,0,0-2.4-1.84c-2.39,0-3.65,3.06-3.65,3.57a.24.24,0,0,0,.26.21c.19,0,.23-.14.28-.23.79-2.59,2.36-3.08,3-3.08,1.05,0,1.26,1,1.26,1.54a9.77,9.77,0,0,1-.42,2.17l-.8,3.2c-.35,1.4-1,2.68-2.26,2.68a2.37,2.37,0,0,1-1.19-.3,1.19,1.19,0,0,0,1-1.14.74.74,0,0,0-.79-.75,1.22,1.22,0,0,0-1.17,1.24c0,1,1.1,1.42,2.1,1.42a2.89,2.89,0,0,0,2.41-1.84,2.44,2.44,0,0,0,2.4,1.84c2.39,0,3.65-3.06,3.65-3.57a.22.22,0,0,0-.24-.21c-.21,0-.23.11-.3.3-.63,2.06-2,3-3,3-.81,0-1.26-.6-1.26-1.56a10.91,10.91,0,0,1,.47-2.43l.82-3.17c.35-1.41,1.14-2.43,2.22-2.43A2.55,2.55,0,0,1,426.19,265.77Z"/><path class="z" d="M433.94,276.08h-.36a6.52,6.52,0,0,1-.34,1.42,4.1,4.1,0,0,1-1.52.15h-3c.44-.37,1.42-1.41,1.85-1.8,2.46-2.27,3.37-3.11,3.37-4.72a3.14,3.14,0,0,0-3.36-3.11,3,3,0,0,0-3,3,.76.76,0,1,0,1.52.06.72.72,0,0,0-.76-.76.59.59,0,0,0-.23,0,2.37,2.37,0,0,1,2.24-1.85c1.38,0,2.22,1.15,2.22,2.64a5.61,5.61,0,0,1-1.72,3.62l-3.27,3.66v.39h5.92Z"/><path class="y" d="M421.05,179a1.67,1.67,0,0,0,.07-.35c0-.23-.23-.23-.28-.23s-1.17.09-1.28.12c-.4,0-.75.07-1.17.09-.59.05-.75.07-.75.49,0,.23.19.23.52.23,1.14,0,1.16.21,1.16.45a1.24,1.24,0,0,1-.07.39l-3.38,13.52a1.53,1.53,0,0,0-.1.54.58.58,0,0,0,.63.61,1,1,0,0,0,.82-.56l1-4.23c.12-.51.26-1,.38-1.52a3.71,3.71,0,0,1,.7-1.68,4,4,0,0,1,3.29-2.08c.93,0,1.26.7,1.26,1.64a20.83,20.83,0,0,1-1.43,5.25,3.41,3.41,0,0,0-.32,1.28,1.8,1.8,0,0,0,1.84,1.9c2.17,0,3-3.44,3-3.58a.22.22,0,0,0-.23-.21c-.21,0-.24.07-.35.47-.54,1.87-1.4,2.85-2.34,2.85-.23,0-.6,0-.6-.77a5.31,5.31,0,0,1,.37-1.61,21.17,21.17,0,0,0,1.47-5.23,2.31,2.31,0,0,0-2.59-2.45,4.35,4.35,0,0,0-3.46,1.84Z"/><path class="y" d="M435.44,195.44h-.35a6,6,0,0,1-.35,1.43,4.35,4.35,0,0,1-1.52.14h-3c.44-.37,1.43-1.41,1.85-1.8,2.46-2.27,3.37-3.11,3.37-4.71a3.13,3.13,0,0,0-3.35-3.12,3,3,0,0,0-3,3,.75.75,0,0,0,.77.83.74.74,0,0,0,.76-.76.72.72,0,0,0-.76-.76h-.23a2.37,2.37,0,0,1,2.24-1.85c1.37,0,2.22,1.16,2.22,2.65a5.66,5.66,0,0,1-1.72,3.61l-3.28,3.67v.38H435Z"/><path class="z" d="M556.08,265.77a1.17,1.17,0,0,0-1,1.14.72.72,0,0,0,.77.75,1.22,1.22,0,0,0,1.19-1.24c0-1-1.12-1.42-2.1-1.42a3,3,0,0,0-2.43,1.84,2.4,2.4,0,0,0-2.4-1.84c-2.38,0-3.64,3.06-3.64,3.57a.23.23,0,0,0,.25.21c.19,0,.24-.14.28-.23.8-2.59,2.36-3.08,3-3.08,1,0,1.26,1,1.26,1.54a9.77,9.77,0,0,1-.42,2.17l-.79,3.2c-.35,1.4-1,2.68-2.27,2.68a2.39,2.39,0,0,1-1.19-.3,1.2,1.2,0,0,0,1-1.14.74.74,0,0,0-.8-.75,1.21,1.21,0,0,0-1.16,1.24c0,1,1.09,1.42,2.1,1.42a2.89,2.89,0,0,0,2.4-1.84,2.45,2.45,0,0,0,2.41,1.84c2.38,0,3.64-3.06,3.64-3.57a.21.21,0,0,0-.23-.21c-.21,0-.24.11-.31.3-.63,2.06-2,3-3,3-.82,0-1.26-.6-1.26-1.56a10.62,10.62,0,0,1,.46-2.43l.82-3.17c.35-1.41,1.15-2.43,2.22-2.43A2.52,2.52,0,0,1,556.08,265.77Z"/><path class="z" d="M559.68,273c-.27,0-.34,0-.34.18s.08.16.37.16h.75c1.38,0,2,1.13,2,2.69,0,2.12-1.1,2.69-1.89,2.69a2.88,2.88,0,0,1-2.58-1.44.8.8,0,0,0,1-.8.81.81,0,1,0-1.61.05c0,1.45,1.45,2.63,3.25,2.63A3.25,3.25,0,0,0,564,276a3.12,3.12,0,0,0-2.75-2.94,3,3,0,0,0,2.31-2.85c0-1.28-1.33-2.22-2.9-2.22s-2.82,1-2.82,2.17a.74.74,0,1,0,.73-.7.42.42,0,0,0-.18,0,2.67,2.67,0,0,1,2.22-1.1c.54,0,1.59.24,1.59,1.83a3.64,3.64,0,0,1-.52,1.91,1.62,1.62,0,0,1-1.47.78Z"/><path class="y" d="M551.77,179a1.67,1.67,0,0,0,.07-.35c0-.23-.23-.23-.28-.23s-1.17.09-1.28.12c-.4,0-.75.07-1.17.09-.58.05-.75.07-.75.49,0,.23.19.23.52.23,1.14,0,1.16.21,1.16.45a1.24,1.24,0,0,1-.07.39l-3.38,13.52a1.53,1.53,0,0,0-.1.54.58.58,0,0,0,.63.61,1,1,0,0,0,.82-.56l1-4.23c.12-.51.26-1,.38-1.52a3.71,3.71,0,0,1,.7-1.68,4,4,0,0,1,3.29-2.08c.93,0,1.26.7,1.26,1.64a21.22,21.22,0,0,1-1.42,5.25,3.45,3.45,0,0,0-.33,1.28,1.8,1.8,0,0,0,1.84,1.9c2.17,0,3-3.44,3-3.58a.22.22,0,0,0-.23-.21c-.21,0-.24.07-.35.47-.54,1.87-1.4,2.85-2.34,2.85-.23,0-.6,0-.6-.77a5.31,5.31,0,0,1,.37-1.61,21.17,21.17,0,0,0,1.47-5.23,2.31,2.31,0,0,0-2.59-2.45,4.35,4.35,0,0,0-3.46,1.84Z"/><path class="y" d="M560.75,192.34c-.28,0-.34,0-.34.18s.08.17.37.17h.75c1.38,0,2,1.13,2,2.69,0,2.12-1.1,2.69-1.89,2.69a2.89,2.89,0,0,1-2.58-1.45.79.79,0,0,0,1-.79.81.81,0,1,0-1.61,0c0,1.44,1.44,2.63,3.24,2.63a3.25,3.25,0,0,0,3.36-3.12,3.11,3.11,0,0,0-2.76-2.93,3.06,3.06,0,0,0,2.32-2.85c0-1.29-1.33-2.23-2.9-2.23s-2.82,1-2.82,2.18a.72.72,0,0,0,.75.77.74.74,0,0,0,0-1.47.42.42,0,0,0-.18,0,2.66,2.66,0,0,1,2.22-1.11c.54,0,1.59.25,1.59,1.84a3.68,3.68,0,0,1-.52,1.91,1.65,1.65,0,0,1-1.47.78Z"/><path class="aa" d="M419.68,110a3.47,3.47,0,0,1-2.68,1.68,1.76,1.76,0,0,1-1.75-1.12,1,1,0,0,0,.23,0,1.18,1.18,0,0,0,1.17-1.14.73.73,0,0,0-.8-.73,1.27,1.27,0,0,0-1.19,1.43,2.11,2.11,0,0,0,2.34,2c2.33,0,4.69-2.14,5.34-4.74l2.29-9.1a1.67,1.67,0,0,0,.07-.4.59.59,0,0,0-.63-.58.92.92,0,0,0-.89.79l-1.72,6.87a1.61,1.61,0,0,1-.31.72,3,3,0,0,1-2.36,1.45c-1.3,0-1.42-1.29-1.42-1.92a15.84,15.84,0,0,1,1.26-4.81,3.87,3.87,0,0,0,.4-1.47A1.81,1.81,0,0,0,417.18,97c-2.14,0-3,3.39-3,3.58a.25.25,0,0,0,.26.21c.21,0,.23-.1.33-.42.56-2,1.44-2.9,2.35-2.9.21,0,.61,0,.61.77a6.38,6.38,0,0,1-.61,2.17c-1.14,3.06-1.14,3.83-1.14,4.39a2.52,2.52,0,0,0,2.75,2.74,3.14,3.14,0,0,0,2.34-1.08l0,0A8.91,8.91,0,0,1,419.68,110Z"/><path class="aa" d="M431.75,108.11h-.35a6.47,6.47,0,0,1-.34,1.43,4.44,4.44,0,0,1-1.53.14h-3c.44-.37,1.43-1.41,1.85-1.8,2.46-2.27,3.37-3.11,3.37-4.71a3.13,3.13,0,0,0-3.35-3.12,3,3,0,0,0-3,3,.75.75,0,0,0,.77.83.74.74,0,0,0,.76-.76.72.72,0,0,0-.76-.76H426a2.37,2.37,0,0,1,2.24-1.85c1.37,0,2.22,1.15,2.22,2.65a5.66,5.66,0,0,1-1.72,3.61l-3.28,3.66v.39h5.92Z"/><path class="aa" d="M549.8,110a3.47,3.47,0,0,1-2.69,1.68,1.76,1.76,0,0,1-1.75-1.12,1,1,0,0,0,.23,0,1.18,1.18,0,0,0,1.17-1.14.72.72,0,0,0-.79-.73,1.26,1.26,0,0,0-1.19,1.43,2.1,2.1,0,0,0,2.33,2c2.34,0,4.7-2.14,5.35-4.74l2.29-9.1a2.38,2.38,0,0,0,.07-.4.59.59,0,0,0-.63-.58.92.92,0,0,0-.89.79l-1.73,6.87a1.51,1.51,0,0,1-.3.72,3,3,0,0,1-2.36,1.45c-1.31,0-1.42-1.29-1.42-1.92a15.84,15.84,0,0,1,1.26-4.81,4,4,0,0,0,.39-1.47A1.81,1.81,0,0,0,547.3,97c-2.15,0-3,3.39-3,3.58a.24.24,0,0,0,.25.21c.21,0,.24-.1.33-.42.56-2,1.45-2.9,2.36-2.9.21,0,.61,0,.61.77a6.38,6.38,0,0,1-.61,2.17c-1.15,3.06-1.15,3.83-1.15,4.39a2.52,2.52,0,0,0,2.76,2.74,3.11,3.11,0,0,0,2.33-1.08l0,0A9.06,9.06,0,0,1,549.8,110Z"/><path class="aa" d="M557.56,105c-.28,0-.34,0-.34.18s.08.16.37.16h.74c1.38,0,2,1.14,2,2.7,0,2.12-1.1,2.69-1.9,2.69a2.89,2.89,0,0,1-2.58-1.45.79.79,0,0,0,1-.79.8.8,0,1,0-1.6,0c0,1.44,1.44,2.62,3.24,2.62a3.25,3.25,0,0,0,3.36-3.11,3.11,3.11,0,0,0-2.76-2.93,3.06,3.06,0,0,0,2.32-2.86c0-1.28-1.33-2.22-2.9-2.22s-2.82,1-2.82,2.18a.74.74,0,1,0,.73-.7h-.18a2.66,2.66,0,0,1,2.22-1.1c.53,0,1.59.25,1.59,1.83a3.69,3.69,0,0,1-.52,1.92A1.66,1.66,0,0,1,558,105Z"/><path class="z" d="M686.59,265.77a1.17,1.17,0,0,0-1,1.14.72.72,0,0,0,.77.75,1.22,1.22,0,0,0,1.19-1.24c0-1-1.12-1.42-2.1-1.42a3,3,0,0,0-2.43,1.84,2.41,2.41,0,0,0-2.4-1.84c-2.38,0-3.65,3.06-3.65,3.57a.24.24,0,0,0,.26.21c.19,0,.23-.14.28-.23.8-2.59,2.36-3.08,3-3.08,1.05,0,1.26,1,1.26,1.54a9.77,9.77,0,0,1-.42,2.17l-.8,3.2c-.35,1.4-1,2.68-2.26,2.68a2.37,2.37,0,0,1-1.19-.3,1.19,1.19,0,0,0,1-1.14.74.74,0,0,0-.79-.75,1.22,1.22,0,0,0-1.17,1.24c0,1,1.1,1.42,2.11,1.42a2.89,2.89,0,0,0,2.4-1.84,2.44,2.44,0,0,0,2.4,1.84c2.39,0,3.65-3.06,3.65-3.57a.22.22,0,0,0-.24-.21c-.21,0-.23.11-.3.3-.63,2.06-2,3-3,3-.81,0-1.26-.6-1.26-1.56a10.91,10.91,0,0,1,.47-2.43l.82-3.17c.35-1.41,1.14-2.43,2.22-2.43A2.55,2.55,0,0,1,686.59,265.77Z"/><path class="z" d="M692.94,268.25c0-.31,0-.39-.23-.39s-.18,0-.31.19l-4.88,7.57v.47h4.26v1.48c0,.6,0,.76-1.21.76h-.33v.47c.38,0,1.66,0,2.11,0s1.75,0,2.13,0v-.47h-.33c-1.17,0-1.21-.16-1.21-.76v-1.48h1.63v-.47h-1.63Zm-1.07,1.26v6.11h-3.94Z"/><path class="aa" d="M680.35,110a3.49,3.49,0,0,1-2.69,1.68,1.76,1.76,0,0,1-1.75-1.12,1,1,0,0,0,.23,0,1.18,1.18,0,0,0,1.17-1.14.72.72,0,0,0-.79-.73,1.26,1.26,0,0,0-1.19,1.43,2.1,2.1,0,0,0,2.33,2c2.34,0,4.69-2.14,5.35-4.74l2.29-9.1a2.38,2.38,0,0,0,.07-.4.59.59,0,0,0-.64-.58.91.91,0,0,0-.88.79l-1.73,6.87a1.73,1.73,0,0,1-.3.72,3,3,0,0,1-2.36,1.45c-1.31,0-1.43-1.29-1.43-1.92a15.84,15.84,0,0,1,1.26-4.81,3.87,3.87,0,0,0,.4-1.47A1.81,1.81,0,0,0,677.85,97c-2.15,0-3,3.39-3,3.58a.24.24,0,0,0,.25.21c.21,0,.24-.1.33-.42.56-2,1.45-2.9,2.36-2.9.21,0,.6,0,.6.77a6.33,6.33,0,0,1-.6,2.17c-1.15,3.06-1.15,3.83-1.15,4.39a2.52,2.52,0,0,0,2.76,2.74,3.11,3.11,0,0,0,2.33-1.08l0,0A9.06,9.06,0,0,1,680.35,110Z"/><path class="aa" d="M690.78,100.28c0-.31,0-.39-.23-.39s-.18,0-.31.2l-4.87,7.57v.47h4.26v1.47c0,.6,0,.76-1.22.76h-.32v.47c.37,0,1.65,0,2.11,0s1.75,0,2.12,0v-.47H692c-1.17,0-1.22-.16-1.22-.76v-1.47h1.64v-.47h-1.64Zm-1.07,1.26v6.12h-3.94Z"/><path class="aa" d="M298.59,100.44c0-.37,0-.39-.32-.39a3.59,3.59,0,0,1-2.87,1v.47a4.67,4.67,0,0,0,2.07-.42v8.45c0,.58,0,.77-1.47.77h-.5v.47c.43,0,2,0,2.54,0s2.09,0,2.53,0v-.47h-.5c-1.43,0-1.48-.19-1.48-.77Z"/><path class="aa" d="M288.26,110a3.47,3.47,0,0,1-2.68,1.68,1.76,1.76,0,0,1-1.75-1.12,1,1,0,0,0,.23,0,1.18,1.18,0,0,0,1.17-1.14.73.73,0,0,0-.8-.73,1.27,1.27,0,0,0-1.19,1.43,2.11,2.11,0,0,0,2.34,2c2.33,0,4.69-2.14,5.34-4.74l2.29-9.1a2.38,2.38,0,0,0,.07-.4.59.59,0,0,0-.63-.58.92.92,0,0,0-.89.79L290,104.93a1.61,1.61,0,0,1-.31.72,3,3,0,0,1-2.36,1.45c-1.3,0-1.42-1.29-1.42-1.92a15.84,15.84,0,0,1,1.26-4.81,3.87,3.87,0,0,0,.4-1.47A1.81,1.81,0,0,0,285.76,97c-2.15,0-3,3.39-3,3.58a.24.24,0,0,0,.26.21c.21,0,.23-.1.32-.42.57-2,1.45-2.9,2.36-2.9.21,0,.61,0,.61.77a6.38,6.38,0,0,1-.61,2.17c-1.14,3.06-1.14,3.83-1.14,4.39a2.52,2.52,0,0,0,2.75,2.74,3.14,3.14,0,0,0,2.34-1.08l0,0A8.91,8.91,0,0,1,288.26,110Z"/><rect class="o" x="648.97" y="155.45" width="68.32" height="66.06"/><g class="k"><line class="l" x1="292.82" y1="257.41" x2="292.82" y2="212.53"/><polygon class="n" points="296.91 215.84 296.18 216.52 292.82 212.91 289.47 216.52 288.74 215.84 292.82 211.44 296.91 215.84"/></g><g class="k"><line class="l" x1="422.96" y1="257.41" x2="422.96" y2="212.53"/><polygon class="n" points="427.05 215.84 426.32 216.52 422.96 212.91 419.61 216.52 418.87 215.84 422.96 211.44 427.05 215.84"/></g><g class="k"><line class="l" x1="553.06" y1="257.41" x2="553.06" y2="212.53"/><polygon class="n" points="557.15 215.84 556.42 216.52 553.06 212.91 549.71 216.52 548.97 215.84 553.06 211.44 557.15 215.84"/></g><g class="k"><line class="l" x1="683.13" y1="257.41" x2="683.13" y2="212.53"/><polygon class="n" points="687.22 215.84 686.49 216.52 683.13 212.91 679.77 216.52 679.04 215.84 683.13 211.44 687.22 215.84"/></g><g class="k"><line class="l" x1="683.13" y1="164.12" x2="683.13" y2="119.24"/><polygon class="n" points="687.22 122.55 686.49 123.24 683.13 119.62 679.77 123.24 679.04 122.55 683.13 118.16 687.22 122.55"/></g><g class="k"><line class="l" x1="553.06" y1="164.12" x2="553.06" y2="119.24"/><polygon class="n" points="557.15 122.55 556.42 123.24 553.06 119.62 549.71 123.24 548.97 122.55 553.06 118.16 557.15 122.55"/></g><g class="k"><line class="l" x1="422.96" y1="164.12" x2="422.96" y2="119.24"/><polygon class="n" points="427.05 122.55 426.32 123.24 422.96 119.62 419.61 123.24 418.87 122.55 422.96 118.16 427.05 122.55"/></g><g class="k"><line class="l" x1="292.82" y1="164.12" x2="292.82" y2="119.24"/><polygon class="n" points="296.91 122.55 296.18 123.24 292.82 119.62 289.47 123.24 288.74 122.55 292.82 118.16 296.91 122.55"/></g><path class="y" d="M683.3,179.38a1.67,1.67,0,0,0,.07-.35c0-.23-.23-.23-.28-.23s-1.17.09-1.28.12c-.4,0-.75.07-1.17.09-.59.05-.75.07-.75.49,0,.23.19.23.51.23,1.15,0,1.17.21,1.17.45a1.61,1.61,0,0,1-.07.39l-3.38,13.52a1.53,1.53,0,0,0-.1.54.58.58,0,0,0,.63.61,1,1,0,0,0,.82-.56l1-4.23c.12-.51.26-1,.37-1.52a4,4,0,0,1,.7-1.68,4.08,4.08,0,0,1,3.3-2.08c.93,0,1.26.7,1.26,1.64a20.83,20.83,0,0,1-1.43,5.25,3.41,3.41,0,0,0-.32,1.28,1.8,1.8,0,0,0,1.84,1.9c2.17,0,3-3.44,3-3.58a.22.22,0,0,0-.23-.21c-.21,0-.24.07-.35.47-.54,1.87-1.4,2.85-2.34,2.85-.23,0-.61,0-.61-.77a5,5,0,0,1,.38-1.61,21.17,21.17,0,0,0,1.47-5.23,2.31,2.31,0,0,0-2.59-2.45,4.35,4.35,0,0,0-3.46,1.84Z"/><path class="y" d="M695.87,188c0-.31,0-.39-.22-.39s-.18,0-.31.2l-4.88,7.57v.47h4.26v1.47c0,.6,0,.76-1.21.76h-.33v.48c.37,0,1.66,0,2.11,0s1.75,0,2.12,0V198h-.32c-1.17,0-1.22-.16-1.22-.76V195.8h1.64v-.47h-1.64Zm-1.07,1.27v6.11h-3.94Z"/><path class="z" d="M52.63,265.77a1.17,1.17,0,0,0-1,1.14.72.72,0,0,0,.77.75,1.22,1.22,0,0,0,1.19-1.24c0-1-1.12-1.42-2.1-1.42A3,3,0,0,0,49,266.84,2.42,2.42,0,0,0,46.63,265c-2.38,0-3.64,3.06-3.64,3.57a.23.23,0,0,0,.26.21c.18,0,.23-.14.28-.23.79-2.59,2.36-3.08,3-3.08,1,0,1.26,1,1.26,1.54a9.77,9.77,0,0,1-.42,2.17l-.79,3.2c-.35,1.4-1,2.68-2.27,2.68a2.39,2.39,0,0,1-1.19-.3,1.2,1.2,0,0,0,1-1.14.74.74,0,0,0-.79-.75,1.22,1.22,0,0,0-1.17,1.24c0,1,1.1,1.42,2.1,1.42a2.91,2.91,0,0,0,2.41-1.84,2.44,2.44,0,0,0,2.4,1.84c2.38,0,3.64-3.06,3.64-3.57a.21.21,0,0,0-.23-.21c-.21,0-.23.11-.3.3-.63,2.06-2,3-3,3-.82,0-1.26-.6-1.26-1.56a10.31,10.31,0,0,1,.47-2.43l.81-3.17c.35-1.41,1.15-2.43,2.22-2.43A2.52,2.52,0,0,1,52.63,265.77Z"/><path class="aa" d="M48.14,110a3.47,3.47,0,0,1-2.69,1.68,1.76,1.76,0,0,1-1.75-1.12,1.06,1.06,0,0,0,.24,0,1.18,1.18,0,0,0,1.16-1.14.72.72,0,0,0-.79-.73,1.27,1.27,0,0,0-1.19,1.43,2.1,2.1,0,0,0,2.33,2c2.34,0,4.7-2.14,5.35-4.74l2.29-9.1a2.38,2.38,0,0,0,.07-.4.59.59,0,0,0-.63-.58.92.92,0,0,0-.89.79l-1.73,6.87a1.51,1.51,0,0,1-.3.72,3,3,0,0,1-2.36,1.45c-1.31,0-1.42-1.29-1.42-1.92a15.84,15.84,0,0,1,1.26-4.81,3.87,3.87,0,0,0,.4-1.47A1.82,1.82,0,0,0,45.64,97c-2.15,0-3,3.39-3,3.58a.24.24,0,0,0,.26.21c.21,0,.23-.1.32-.42.56-2,1.45-2.9,2.36-2.9.21,0,.61,0,.61.77a6.38,6.38,0,0,1-.61,2.17c-1.14,3.06-1.14,3.83-1.14,4.39a2.52,2.52,0,0,0,2.75,2.74,3.14,3.14,0,0,0,2.34-1.08l0,0A8.91,8.91,0,0,1,48.14,110Z"/><rect class="o" x="13.73" y="155.45" width="68.32" height="66.06"/><line class="ab" x1="47.89" y1="164.12" x2="47.89" y2="118.2"/><polygon class="a" points="48.06 118.33 48.03 118.36 47.89 118.22 47.76 118.36 47.73 118.33 47.89 118.16 48.06 118.33"/><g class="m"><line class="l" x1="47.89" y1="164.12" x2="47.89" y2="119.24"/><polygon class="n" points="51.98 122.55 51.25 123.24 47.9 119.62 44.54 123.24 43.8 122.55 47.9 118.16 51.98 122.55"/></g><path class="y" d="M47.57,179.38a1.67,1.67,0,0,0,.07-.35c0-.23-.24-.23-.28-.23s-1.17.09-1.29.12c-.39,0-.74.07-1.16.09-.59.05-.75.07-.75.49,0,.23.18.23.51.23,1.15,0,1.17.21,1.17.45a1.61,1.61,0,0,1-.07.39l-3.39,13.52a1.68,1.68,0,0,0-.09.54.58.58,0,0,0,.63.61,1,1,0,0,0,.82-.56l1-4.23c.12-.51.26-1,.37-1.52a4,4,0,0,1,.7-1.68,4.08,4.08,0,0,1,3.29-2.08c.94,0,1.27.7,1.27,1.64A21.25,21.25,0,0,1,49,192.06a3.45,3.45,0,0,0-.33,1.28,1.81,1.81,0,0,0,1.85,1.9c2.17,0,3-3.44,3-3.58a.23.23,0,0,0-.24-.21c-.21,0-.23.07-.35.47-.53,1.87-1.4,2.85-2.33,2.85-.23,0-.61,0-.61-.77a5,5,0,0,1,.38-1.61,21.17,21.17,0,0,0,1.47-5.23,2.31,2.31,0,0,0-2.6-2.45,4.33,4.33,0,0,0-3.45,1.84Z"/><path class="n" d="M116.35,186.81c.35,0,.7,0,.7-.39s-.39-.42-.79-.42H103.21c-.4,0-.8,0-.8.42s.35.39.7.39Zm-.09,4.16c.4,0,.79,0,.79-.42s-.35-.4-.7-.4H103.11c-.35,0-.7,0-.7.4s.4.42.8.42Z"/><line class="ab" x1="573.85" y1="188.48" x2="662.29" y2="188.48"/><polygon class="a" points="662.16 188.65 662.13 188.62 662.28 188.48 662.13 188.35 662.16 188.32 662.34 188.48 662.16 188.65"/><g class="m"><line class="l" x1="573.85" y1="188.48" x2="661.25" y2="188.48"/><polygon class="n" points="657.94 192.57 657.26 191.84 660.87 188.48 657.26 185.13 657.94 184.39 662.34 188.48 657.94 192.57"/></g><line class="ab" x1="206.35" y1="188.48" x2="272.16" y2="188.48"/><g class="m"><line class="l" x1="206.35" y1="188.48" x2="271.07" y2="188.48"/><polygon class="n" points="267.76 192.57 267.08 191.84 270.69 188.48 267.08 185.13 267.76 184.39 272.16 188.48 267.76 192.57"/></g><path class="ab" d="M31,188.48H13.69a8.46,8.46,0,0,0-8.46,8.46V227a8.46,8.46,0,0,0,8.46,8.46H82.1A8.46,8.46,0,0,0,90.56,227V196.94a8.46,8.46,0,0,0-8.46-8.46H64.87"/><polygon class="a" points="65 188.32 65.03 188.35 64.88 188.48 65.03 188.62 65 188.65 64.82 188.48 65 188.32"/><g class="m"><path class="l" d="M29.88,188.48H13.69a8.46,8.46,0,0,0-8.46,8.46V227a8.46,8.46,0,0,0,8.46,8.46H82.1A8.46,8.46,0,0,0,90.56,227V196.94a8.46,8.46,0,0,0-8.46-8.46H64.82"/><polygon class="n" points="26.57 184.39 25.88 185.12 29.5 188.48 25.88 191.84 26.57 192.57 30.96 188.48 26.57 184.39"/></g><line class="ab" x1="313.62" y1="188.48" x2="402.1" y2="188.48"/><g class="m"><line class="l" x1="313.62" y1="188.48" x2="401.01" y2="188.48"/><polygon class="n" points="397.7 192.57 397.02 191.84 400.63 188.48 397.02 185.13 397.7 184.39 402.1 188.48 397.7 192.57"/></g><line class="ab" x1="443.79" y1="188.48" x2="532.23" y2="188.48"/><polygon class="a" points="532.09 188.65 532.07 188.62 532.21 188.48 532.07 188.35 532.09 188.32 532.27 188.48 532.09 188.65"/><g class="m"><line class="l" x1="443.79" y1="188.48" x2="531.19" y2="188.48"/><polygon class="n" points="527.87 192.57 527.19 191.84 530.8 188.48 527.19 185.13 527.87 184.39 532.27 188.48 527.87 192.57"/></g><line class="ab" x1="706.75" y1="188.48" x2="769.68" y2="188.48"/><polygon class="a" points="769.55 188.65 769.52 188.62 769.67 188.48 769.52 188.35 769.55 188.32 769.73 188.48 769.55 188.65"/><g class="m"><line class="l" x1="706.75" y1="188.48" x2="768.64" y2="188.48"/><polygon class="n" points="765.33 192.57 764.64 191.84 768.26 188.48 764.64 185.13 765.33 184.39 769.73 188.48 765.33 192.57"/></g><line class="ab" x1="47.89" y1="257.41" x2="47.89" y2="211.44"/><g class="m"><line class="l" x1="47.89" y1="257.41" x2="47.89" y2="212.53"/><polygon class="n" points="51.98 215.84 51.25 216.52 47.9 212.91 44.54 216.52 43.8 215.84 47.9 211.44 51.98 215.84"/></g></svg>